<svg width="49" height="49" viewBox="0 0 49 49" fill="none" xmlns="http://www.w3.org/2000/svg">
<path d="M40.8333 16.3332L24.5 26.5415L8.16665 16.3332V12.2498L24.5 22.4582L40.8333 12.2498M40.8333 8.1665H8.16665C5.9004 8.1665 4.08331 9.98359 4.08331 12.2498V36.7498C4.08331 37.8328 4.51352 38.8714 5.27929 39.6372C6.04507 40.403 7.08368 40.8332 8.16665 40.8332H40.8333C41.9163 40.8332 42.9549 40.403 43.7207 39.6372C44.4864 38.8714 44.9166 37.8328 44.9166 36.7498V12.2498C44.9166 11.1669 44.4864 10.1283 43.7207 9.36248C42.9549 8.59671 41.9163 8.1665 40.8333 8.1665Z" fill="#333333"/>
</svg>
