<svg width="53" height="53" viewBox="0 0 53 53" fill="none" xmlns="http://www.w3.org/2000/svg">
<path d="M28.7702 4.4165C31.2545 4.42313 32.5155 4.43638 33.6042 4.4673L34.0326 4.48275C34.5273 4.50042 35.0153 4.5225 35.605 4.549C37.9546 4.65942 39.5579 5.03042 40.9646 5.57588C42.4221 6.1368 43.6499 6.89646 44.8777 8.12209C46.0011 9.22566 46.8701 10.5611 47.424 12.0353C47.9694 13.442 48.3404 15.0452 48.4508 17.3971C48.4773 17.9845 48.4994 18.4725 48.5171 18.9694L48.5303 19.3978C48.5635 20.4843 48.5767 21.7453 48.5811 24.2297L48.5833 25.8771V28.77C48.5887 30.3808 48.5718 31.9915 48.5325 33.6018L48.5193 34.0303C48.5016 34.5271 48.4795 35.0152 48.453 35.6026C48.3426 37.9545 47.9672 39.5555 47.424 40.9644C46.8701 42.4385 46.0011 43.774 44.8777 44.8776C43.7742 46.001 42.4387 46.8699 40.9646 47.4238C39.5579 47.9693 37.9546 48.3403 35.605 48.4507L34.0326 48.5169L33.6042 48.5302C32.5155 48.5611 31.2545 48.5765 28.7702 48.581L27.1227 48.5832H24.232C22.6205 48.5889 21.009 48.5719 19.398 48.5324L18.9696 48.5191C18.4453 48.4993 17.9212 48.4765 17.3972 48.4507C15.0476 48.3403 13.4443 47.9693 12.0354 47.4238C10.5621 46.8696 9.22739 46.0007 8.12445 44.8776C7.00029 43.7742 6.13057 42.4387 5.57604 40.9644C5.03058 39.5577 4.65958 37.9545 4.54916 35.6026L4.48291 34.0303L4.47187 33.6018C4.43116 31.9916 4.41276 30.3808 4.41666 28.77V24.2297C4.41055 22.6189 4.42675 21.0081 4.46524 19.3978L4.4807 18.9694C4.49837 18.4725 4.52045 17.9845 4.54695 17.3971C4.65737 15.0452 5.02837 13.4442 5.57383 12.0353C6.12965 10.5605 7.0009 9.22501 8.12666 8.12209C9.22896 6.99926 10.5629 6.13033 12.0354 5.57588C13.4443 5.03042 15.0454 4.65942 17.3972 4.549C17.9847 4.5225 18.4749 4.50042 18.9696 4.48275L19.398 4.4695C21.0083 4.43027 22.6191 4.41334 24.2298 4.41871L28.7702 4.4165ZM26.5 15.4582C23.5716 15.4582 20.7631 16.6215 18.6924 18.6922C16.6216 20.7629 15.4583 23.5714 15.4583 26.4998C15.4583 29.4283 16.6216 32.2368 18.6924 34.3075C20.7631 36.3782 23.5716 37.5415 26.5 37.5415C29.4284 37.5415 32.2369 36.3782 34.3076 34.3075C36.3783 32.2368 37.5417 29.4283 37.5417 26.4998C37.5417 23.5714 36.3783 20.7629 34.3076 18.6922C32.2369 16.6215 29.4284 15.4582 26.5 15.4582ZM26.5 19.8748C27.37 19.8747 28.2315 20.0459 29.0354 20.3787C29.8392 20.7115 30.5696 21.1994 31.1849 21.8145C31.8002 22.4296 32.2883 23.1598 32.6214 23.9635C32.9545 24.7673 33.126 25.6287 33.1261 26.4987C33.1262 27.3687 32.955 28.2303 32.6222 29.0341C32.2894 29.8379 31.8015 30.5683 31.1865 31.1836C30.5714 31.7989 29.8411 32.287 29.0374 32.6201C28.2337 32.9532 27.3722 33.1247 26.5022 33.1248C24.7451 33.1248 23.0601 32.4268 21.8176 31.1844C20.5752 29.942 19.8772 28.2569 19.8772 26.4998C19.8772 24.7428 20.5752 23.0577 21.8176 21.8153C23.0601 20.5728 24.7451 19.8748 26.5022 19.8748M38.096 12.1457C37.3638 12.1457 36.6617 12.4365 36.144 12.9542C35.6264 13.4719 35.3355 14.174 35.3355 14.9061C35.3355 15.6382 35.6264 16.3403 36.144 16.858C36.6617 17.3757 37.3638 17.6665 38.096 17.6665C38.8281 17.6665 39.5302 17.3757 40.0479 16.858C40.5655 16.3403 40.8564 15.6382 40.8564 14.9061C40.8564 14.174 40.5655 13.4719 40.0479 12.9542C39.5302 12.4365 38.8281 12.1457 38.096 12.1457Z" fill="#333333"/>
</svg>
